# xmcd
#
# Track frame offsets:
#	150
#	20295
#	39037
#	58306
#	77179
#	93562
#	108576
#	124610
#	140096
#	156753
#	170997
#	188454
#	205450
#	224842
#	241274
#
# Disc length: 3514 seconds
#
# Revision: 0
# Processed by: cddbd v1.5.2PL0 Copyright (c) Steve Scherf et al.
# Submitted via: audiograbber 1.83.01
#
DISCID=da0db80f
DTITLE=Sound Choice - Country Hits - Vol. 161 SC8823
DYEAR=1900
DGENRE=Karaoke
TTITLE0=Sara Evans - Backseat Of A Greyhound Bus
TTITLE1=Darryl Worley - Have You Forgotten
TTITLE2=Terri Clark - Three Mississippi
TTITLE3=Brett James - After All
TTITLE4=Trick Pony - A Boy Like You
TTITLE5=Johnny Cash - Give My Love To Rose
TTITLE6=Randy Travis - Three Wooden Crosses
TTITLE7=Brian McComas - 99.9% Sure
TTITLE8=Lonestar - My Front Porch Looking In
TTITLE9=Tracy Byrd - The Truth About Men
TTITLE10=Terri Clark - Pain To Kill
TTITLE11=Vince Gill - Someday
TTITLE12=Trace Adkins - Then They Do
TTITLE13=Sammy Kershaw - I want My Money
TTITLE14=Tanya Tucker - Old Weaknesses (Comming On Strong)
EXTD=
EXTT0=
EXTT1=
EXTT2=
EXTT3=
EXTT4=
EXTT5=
EXTT6=
EXTT7=
EXTT8=
EXTT9=
EXTT10=
EXTT11=
EXTT12=
EXTT13=
EXTT14=
PLAYORDER=
